<svg width="419" height="253" viewBox="0 0 419 253" fill="none" xmlns="http://www.w3.org/2000/svg">
<g clip-path="url(#clip0_201_718)">
<path d="M241.768 202.956C240.792 202.956 239.838 203.245 239.027 203.787C238.215 204.329 237.583 205.099 237.21 206C236.836 206.902 236.738 207.893 236.929 208.85C237.119 209.807 237.589 210.686 238.279 211.376C238.969 212.066 239.848 212.535 240.805 212.726C241.762 212.916 242.754 212.818 243.656 212.445C244.557 212.072 245.328 211.439 245.87 210.628C246.412 209.817 246.702 208.864 246.702 207.888C246.702 206.58 246.182 205.325 245.256 204.4C244.331 203.475 243.076 202.956 241.768 202.956ZM241.768 210.923C241.167 210.923 240.58 210.745 240.081 210.412C239.582 210.078 239.192 209.604 238.963 209.05C238.733 208.495 238.673 207.885 238.79 207.296C238.907 206.707 239.196 206.166 239.621 205.742C240.045 205.317 240.586 205.028 241.175 204.911C241.764 204.794 242.375 204.854 242.93 205.084C243.484 205.313 243.959 205.702 244.292 206.202C244.626 206.701 244.804 207.288 244.804 207.888C244.804 208.693 244.484 209.465 243.915 210.034C243.345 210.604 242.573 210.923 241.768 210.923Z" fill="#E4E4E4"/>
<path d="M222.791 199.161H241.768V217.938C241.768 218.593 241.507 219.222 241.044 219.685C240.58 220.149 239.951 220.409 239.296 220.409H225.263C224.608 220.409 223.979 220.149 223.515 219.685C223.052 219.222 222.791 218.593 222.791 217.938V199.161Z" fill="#E4E4E4"/>
<path d="M286.106 220.839H0.884862C0.779087 220.827 0.681319 220.777 0.610298 220.698C0.539276 220.619 0.5 220.516 0.5 220.41C0.5 220.303 0.539276 220.201 0.610298 220.122C0.681319 220.042 0.779087 219.992 0.884862 219.98H286.106C286.212 219.992 286.309 220.042 286.38 220.122C286.452 220.201 286.491 220.303 286.491 220.41C286.491 220.516 286.452 220.619 286.38 220.698C286.309 220.777 286.212 220.827 286.106 220.839Z" fill="#CACACA"/>
<path d="M38.8921 212.729L37.1282 221.449L69.931 232.402L72.5349 219.532L38.8921 212.729Z" fill="#FFB6B6"/>
<path d="M42.1902 211.081L38.7159 228.254L38.7158 228.255C38.1283 231.157 36.4117 233.707 33.9436 235.344C31.4756 236.981 28.4581 237.571 25.5549 236.984L25.1992 236.912L30.8878 208.796L42.1902 211.081Z" fill="#474747"/>
<path d="M76.0647 92.6171C88.3658 92.6171 98.3379 82.6477 98.3379 70.3498C98.3379 58.0519 88.3658 48.0825 76.0647 48.0825C63.7635 48.0825 53.7915 58.0519 53.7915 70.3498C53.7915 82.6477 63.7635 92.6171 76.0647 92.6171Z" fill="#FEB8B8"/>
<path d="M96.8679 51.1395C93.5379 45.7335 88.3253 41.75 82.2336 39.9558L79.4992 41.9507V39.3604C78.0363 39.1365 76.5555 39.0503 75.0765 39.1028L72.7174 41.2368V39.2801C69.2245 39.714 65.8595 40.8668 62.8344 42.6656C59.8094 44.4645 57.19 46.8705 55.1414 49.7318C50.0183 57.1155 49.1535 67.3878 54.1924 74.8307C55.5755 70.5808 57.2544 66.5932 58.6379 62.3437C59.7251 62.4919 60.827 62.4972 61.9155 62.3596L63.5983 58.4338L64.0685 62.1935C69.2848 61.7393 77.0216 60.7417 81.9665 59.8277L81.4856 56.9434L84.3626 59.3401C85.8775 58.9915 86.7771 58.6751 86.7028 58.4334C90.3805 64.3609 94.8815 68.1468 98.5588 74.0743C99.9556 65.7162 101.563 58.7665 96.8679 51.1395Z" fill="#2F2E41"/>
<path d="M83.3117 216.063C114.985 216.063 140.662 208.883 140.662 200.025C140.662 191.168 114.985 183.988 83.3117 183.988C51.6382 183.988 25.9617 191.168 25.9617 200.025C25.9617 208.883 51.6382 216.063 83.3117 216.063Z" fill="#E2E1EA"/>
<path d="M123.968 127.611C123.202 123.005 122.412 118.309 120.271 114.16C118.863 111.441 116.629 108.851 113.617 108.314C113.024 108.261 112.441 108.126 111.885 107.913C111.002 107.488 99.143 100.72 97.258 99.5408C95.6397 98.5289 93.0849 96.6551 91.7967 96.6551C90.5007 96.6266 85.5315 97.7828 66.1359 96.2671C62.8734 97.5763 59.7141 99.1293 56.6848 100.913C56.6223 100.872 36.554 111.645 35.8 111.617C34.3722 111.557 33.045 112.471 32.2265 113.622C31.4081 114.773 31.0242 116.197 30.6223 117.575C35.0056 127.334 39.0161 137.105 43.3998 146.864C43.605 147.232 43.7141 147.645 43.7168 148.066C43.6287 148.503 43.4422 148.914 43.1714 149.268C41.0217 152.72 41.0901 157.063 41.3249 161.12C41.5599 165.178 41.8505 169.464 40.0367 173.101C39.5434 174.099 38.9018 175.013 38.4326 176.011C37.3337 178.273 36.9366 185.506 37.5784 187.936L117.99 190.239C116.261 185.487 123.968 127.611 123.968 127.611Z" fill="#297B91"/>
<path d="M23.6716 147.297C23.5111 148.457 23.495 149.633 23.6235 150.797L24.776 167.344C24.8842 168.904 24.9907 170.459 25.1371 172.015C25.4136 175.034 25.8267 178.029 26.3394 181.02C26.351 181.445 26.5306 181.848 26.8389 182.14C27.1471 182.432 27.5588 182.591 27.9836 182.58C33.0569 183.653 38.2985 183.61 43.4762 183.318C51.377 182.877 71.5904 182.043 72.8254 180.439C74.0603 178.835 73.3406 176.241 71.7304 174.944C70.1202 173.647 43.4457 170.486 43.4457 170.486C43.7063 168.421 44.4925 166.476 45.2384 164.516C46.5781 161.038 47.8294 157.447 47.8534 153.722C47.8775 149.997 46.4738 146.081 43.4216 143.947C40.911 142.195 37.6785 141.87 34.619 141.942C32.393 142.006 28.5469 141.473 26.5138 142.343C24.9048 143.051 23.9722 145.722 23.6716 147.297Z" fill="#FBBEBE"/>
<path d="M124.111 184.702C125.446 184.193 126.918 184.377 128.35 184.57C132.958 185.199 137.634 185.844 141.905 187.685C143.911 188.543 145.82 189.69 147.175 191.377C148.378 192.896 149.08 194.757 149.746 196.589L151.287 200.807C151.941 202.392 152.393 204.053 152.63 205.751C153.111 210.799 149.658 215.558 145.315 218.18C140.972 220.803 135.858 221.736 130.877 222.715C125.895 223.693 120.895 224.775 115.934 225.922C113.62 226.523 111.272 226.985 108.903 227.306C103.593 227.907 98.0431 227.021 92.9977 228.777C90.9924 229.479 89.0232 230.521 86.9432 231.006C85.5606 231.297 84.1627 231.51 82.7561 231.644L73.2072 232.734C71.2655 232.994 69.3106 233.144 67.352 233.183C63.1812 233.183 59.0784 232.196 55.0283 231.209C54.5979 231.133 54.1883 230.968 53.826 230.723C53.1845 230.218 53.0441 229.324 52.9517 228.514C52.5427 224.93 52.1848 221.341 51.8782 217.749C51.7821 216.582 51.7099 215.32 52.3476 214.337C53.1497 213.135 54.714 212.758 56.1417 212.525C62.1959 211.535 68.329 211.109 74.4619 211.254C76.7918 208.924 80.6341 208.912 83.6862 207.645C84.809 207.13 85.8957 206.539 86.9389 205.877C92.3982 202.693 98.4991 200.766 104.797 200.236C106.031 200.198 107.256 200.023 108.451 199.715C110.813 198.981 112.967 196.984 115.393 197.473C115.694 196.644 115.903 195.533 116.596 194.963C116.939 194.671 117.365 194.474 117.682 194.161C118.352 193.484 118.412 192.417 118.312 191.471C118.211 190.525 117.987 189.555 118.232 188.632C118.333 188.283 118.483 187.95 118.677 187.642C119.876 185.568 121.693 184.501 124.111 184.702Z" fill="#E2E1EA"/>
<path d="M30.3904 117.872C29.9998 118.281 29.6968 118.765 29.5002 119.296C26.2585 126.6 24.3437 134.423 23.8455 142.398C23.8543 142.787 23.7646 143.172 23.5849 143.517C23.4076 143.746 23.2103 143.959 22.9953 144.154C22.8078 144.376 22.666 144.633 22.5778 144.91C22.4897 145.187 22.457 145.479 22.4816 145.768C22.5062 146.058 22.5876 146.34 22.7211 146.598C22.8547 146.856 23.0379 147.086 23.2601 147.273C23.2965 147.304 23.3339 147.333 23.3723 147.362C24.034 146.117 25.6181 145.71 27.0261 145.602C33.7676 145.068 40.3528 148.204 47.1145 147.967C46.6374 146.319 45.9513 144.736 45.5622 143.068C43.8416 135.662 48.133 127.6 45.5021 120.467C44.9765 119.039 44.0984 117.636 42.7149 117.011C42.142 116.78 41.5425 116.621 40.9303 116.538C39.2218 116.23 35.8205 114.91 34.1686 115.44C33.5589 115.636 33.3184 116.21 32.813 116.556C32.0453 117.046 31.0267 117.226 30.3904 117.872Z" fill="#297B91"/>
<path d="M124.016 142.343C121.983 141.473 118.137 142.006 115.911 141.942C112.851 141.87 109.619 142.195 107.108 143.947C104.056 146.081 102.652 149.997 102.676 153.722C102.701 157.447 103.952 161.038 105.292 164.516C106.037 166.476 106.824 168.421 107.084 170.486C107.084 170.486 80.4098 173.647 78.7995 174.944C77.1893 176.241 76.4696 178.835 77.7046 180.439C78.9395 182.043 117.473 183.653 122.546 182.58C122.971 182.591 123.383 182.432 123.691 182.14C123.999 181.848 124.179 181.445 124.19 181.02C124.703 178.029 125.116 175.034 125.393 172.015C125.539 170.459 125.646 168.904 125.754 167.344L126.906 150.797C127.035 149.633 127.019 148.457 126.858 147.297C126.558 145.722 125.625 143.051 124.016 142.343Z" fill="#FBBEBE"/>
<path d="M117.717 116.556C117.212 116.21 116.971 115.636 116.361 115.44C114.71 114.91 111.308 116.23 109.6 116.538C108.987 116.621 108.388 116.78 107.815 117.011C106.432 117.636 105.553 119.039 105.028 120.467C102.397 127.6 106.688 135.662 104.968 143.068C104.579 144.736 103.893 146.319 103.416 147.967C110.177 148.204 116.762 145.068 123.504 145.602C124.912 145.71 126.496 146.117 127.158 147.362C127.196 147.333 127.233 147.304 127.27 147.273C127.492 147.086 127.675 146.856 127.809 146.598C127.942 146.34 128.024 146.058 128.048 145.768C128.073 145.479 128.04 145.187 127.952 144.91C127.864 144.633 127.722 144.376 127.535 144.154C127.32 143.959 127.122 143.746 126.945 143.517C126.765 143.172 126.676 142.787 126.685 142.398C126.186 134.423 124.272 126.6 121.03 119.296C120.833 118.765 120.53 118.281 120.14 117.872C119.503 117.226 118.485 117.046 117.717 116.556Z" fill="#297B91"/>
<path d="M128.994 225.177L127.821 233.996L93.2388 233.672L94.9692 220.656L128.994 225.177Z" fill="#FFB6B6"/>
<path d="M137.843 224.064L134.063 252.5L133.703 252.452C130.767 252.062 128.106 250.522 126.306 248.171C124.506 245.819 123.713 242.849 124.103 239.914L124.103 239.913L126.412 222.545L137.843 224.064Z" fill="#474747"/>
<g filter="url(#filter0_d_201_718)">
<path d="M47.6344 189.164C47.6344 189.565 47.0049 189.164 46.9474 188.735C46.5064 185.491 43.9313 182.817 40.9315 181.518C37.9318 180.219 34.5146 180.151 31.2662 180.459C26.3535 180.924 20.8388 182.805 19.0422 187.396C18.6171 188.469 14.6349 198.025 15.0235 200.174C16.0703 205.907 19.9925 210.811 24.745 214.207C29.4976 217.603 35.0505 219.632 40.5897 221.462C55.2348 226.29 70.2604 229.878 85.5076 232.187C87.9779 232.56 90.4727 232.905 92.8386 233.698C94.956 234.408 96.9372 235.47 99.0069 236.305C103.82 238.236 108.997 238.927 114.126 239.604C115.001 239.717 116.003 239.797 116.649 239.204C117.483 238.431 117.207 237.082 116.97 235.972C116.099 231.749 116.83 227.354 119.019 223.639C119.878 222.196 120.995 220.716 120.832 219.046C120.64 217.097 118.699 215.718 116.765 215.405C114.832 215.092 112.867 215.553 110.926 215.806C110.26 215.959 109.563 215.89 108.941 215.609C108.652 215.415 108.39 215.183 108.162 214.92C106.825 213.63 105.114 212.797 103.274 212.54C101.434 212.283 99.5593 212.615 97.9197 213.489C97.2017 213.89 96.1162 212.995 95.3691 212.659L86.9349 208.842C77.2455 204.46 67.5081 200.057 57.2572 197.282C56.4392 197.122 55.6618 196.798 54.9711 196.332C54.4618 195.931 54.0968 195.387 53.6275 194.941C52.6047 193.974 51.1799 193.589 49.954 192.904C48.7281 192.218 47.3536 190.539 47.6344 189.164Z" fill="#E2E1EA"/>
</g>
<path d="M69.4681 183.37C72.7882 183.37 75.4796 180.679 75.4796 177.36C75.4796 174.041 72.7882 171.35 69.4681 171.35C66.148 171.35 63.4565 174.041 63.4565 177.36C63.4565 180.679 66.148 183.37 69.4681 183.37Z" fill="#FBBEBE"/>
<path d="M82.7794 183.37C86.0994 183.37 88.7909 180.679 88.7909 177.36C88.7909 174.041 86.0994 171.35 82.7794 171.35C79.4593 171.35 76.7678 174.041 76.7678 177.36C76.7678 180.679 79.4593 183.37 82.7794 183.37Z" fill="#FBBEBE"/>
<path d="M119.887 190.903H37.2977C36.3335 190.902 35.409 190.519 34.7272 189.837C34.0454 189.156 33.6618 188.232 33.6606 187.268V137.176C33.6618 136.212 34.0454 135.288 34.7272 134.606C35.409 133.925 36.3335 133.541 37.2977 133.54H119.887C120.851 133.541 121.776 133.925 122.458 134.606C123.139 135.288 123.523 136.212 123.524 137.176V187.268C123.523 188.232 123.139 189.156 122.458 189.837C121.776 190.519 120.851 190.902 119.887 190.903Z" fill="#B6B4CA"/>
<path d="M78.3922 164.627C79.7211 164.627 80.7985 163.55 80.7985 162.221C80.7985 160.893 79.7211 159.815 78.3922 159.815C77.0632 159.815 75.9858 160.893 75.9858 162.221C75.9858 163.55 77.0632 164.627 78.3922 164.627Z" fill="white"/>
<path d="M373.228 90.8434H265.925C265.356 90.8427 264.81 90.6164 264.408 90.214C264.005 89.8116 263.779 89.266 263.778 88.697V68.4777H264.637V88.697C264.637 89.0384 264.773 89.3658 265.015 89.6072C265.256 89.8487 265.584 89.9845 265.925 89.9848H373.228C373.57 89.9845 373.897 89.8487 374.139 89.6072C374.38 89.3658 374.516 89.0384 374.516 88.697V68.3364H375.375V88.697C375.375 89.266 375.148 89.8116 374.746 90.214C374.343 90.6164 373.797 90.8427 373.228 90.8434Z" fill="#E2E1EA"/>
<path d="M412.125 68.0488H159.976V68.9074H412.125V68.0488Z" fill="#E2E1EA"/>
<path d="M159.994 75.7954C164.074 75.7954 167.381 72.4892 167.381 68.4109C167.381 64.3325 164.074 61.0264 159.994 61.0264C155.915 61.0264 152.608 64.3325 152.608 68.4109C152.608 72.4892 155.915 75.7954 159.994 75.7954Z" fill="#297B91"/>
<path d="M235.055 75.7954C239.134 75.7954 242.441 72.4892 242.441 68.4109C242.441 64.3325 239.134 61.0264 235.055 61.0264C230.975 61.0264 227.668 64.3325 227.668 68.4109C227.668 72.4892 230.975 75.7954 235.055 75.7954Z" fill="#297B91"/>
<path d="M285.995 97.5005C290.075 97.5005 293.382 94.1943 293.382 90.116C293.382 86.0376 290.075 82.7314 285.995 82.7314C281.916 82.7314 278.609 86.0376 278.609 90.116C278.609 94.1943 281.916 97.5005 285.995 97.5005Z" fill="#E2E1EA"/>
<path d="M324.721 97.5005C328.801 97.5005 332.108 94.1943 332.108 90.116C332.108 86.0376 328.801 82.7314 324.721 82.7314C320.642 82.7314 317.335 86.0376 317.335 90.116C317.335 94.1943 320.642 97.5005 324.721 97.5005Z" fill="#ABABAB"/>
<path d="M305.956 75.7954C310.035 75.7954 313.342 72.4892 313.342 68.4109C313.342 64.3325 310.035 61.0264 305.956 61.0264C301.876 61.0264 298.569 64.3325 298.569 68.4109C298.569 72.4892 301.876 75.7954 305.956 75.7954Z" fill="#297B91"/>
<path d="M411.113 75.7954C415.192 75.7954 418.499 72.4892 418.499 68.4109C418.499 64.3325 415.192 61.0264 411.113 61.0264C407.034 61.0264 403.727 64.3325 403.727 68.4109C403.727 72.4892 407.034 75.7954 411.113 75.7954Z" fill="#297B91"/>
<path d="M374.945 75.7954C379.025 75.7954 382.332 72.4892 382.332 68.4109C382.332 64.3325 379.025 61.0264 374.945 61.0264C370.866 61.0264 367.559 64.3325 367.559 68.4109C367.559 72.4892 370.866 75.7954 374.945 75.7954Z" fill="#297B91"/>
<path d="M292.681 0.5H278.98V9.93985H292.681V0.5Z" fill="#E2E1EA"/>
<path d="M166.898 0.5H153.198V9.93985H166.898V0.5Z" fill="#297B91"/>
<path d="M213.304 0.5H199.604V9.93985H213.304V0.5Z" fill="#ABABAB"/>
<path d="M182.9 68.9072C182.786 68.9072 182.677 68.862 182.596 68.7815C182.515 68.7009 182.47 68.5918 182.47 68.4779V47.2875C182.471 46.7185 182.697 46.1729 183.1 45.7705C183.502 45.3681 184.048 45.1418 184.617 45.1411H205.518C205.632 45.1411 205.741 45.1863 205.822 45.2669C205.902 45.3474 205.947 45.4565 205.947 45.5704C205.947 45.6842 205.902 45.7934 205.822 45.874C205.741 45.9545 205.632 45.9997 205.518 45.9997H184.617C184.276 46.0001 183.948 46.1359 183.707 46.3773C183.465 46.6187 183.329 46.9461 183.329 47.2875V68.4779C183.329 68.5918 183.284 68.7009 183.203 68.7815C183.123 68.862 183.013 68.9072 182.9 68.9072Z" fill="#E2E1EA"/>
<path d="M206.5 52.7944C210.579 52.7944 213.886 49.4883 213.886 45.4099C213.886 41.3316 210.579 38.0254 206.5 38.0254C202.421 38.0254 199.114 41.3316 199.114 45.4099C199.114 49.4883 202.421 52.7944 206.5 52.7944Z" fill="#ABABAB"/>
<path d="M348.216 68.478H347.358V47.2875C347.358 46.7185 347.585 46.1729 347.987 45.7705C348.39 45.3681 348.935 45.1418 349.505 45.1411H370.405V45.9997H349.505C349.163 46.0001 348.836 46.1359 348.594 46.3773C348.353 46.6187 348.217 46.9461 348.216 47.2875V68.478Z" fill="#E2E1EA"/>
<path d="M371.387 52.7944C375.467 52.7944 378.774 49.4883 378.774 45.4099C378.774 41.3316 375.467 38.0254 371.387 38.0254C367.308 38.0254 364.001 41.3316 364.001 45.4099C364.001 49.4883 367.308 52.7944 371.387 52.7944Z" fill="#ABABAB"/>
</g>
<defs>
<filter id="filter0_d_201_718" x="11.9968" y="178.306" width="111.851" height="65.3774" filterUnits="userSpaceOnUse" color-interpolation-filters="sRGB">
<feFlood flood-opacity="0" result="BackgroundImageFix"/>
<feColorMatrix in="SourceAlpha" type="matrix" values="0 0 0 0 0 0 0 0 0 0 0 0 0 0 0 0 0 0 127 0" result="hardAlpha"/>
<feOffset dy="1"/>
<feGaussianBlur stdDeviation="1.5"/>
<feComposite in2="hardAlpha" operator="out"/>
<feColorMatrix type="matrix" values="0 0 0 0 0 0 0 0 0 0 0 0 0 0 0 0 0 0 0.25 0"/>
<feBlend mode="normal" in2="BackgroundImageFix" result="effect1_dropShadow_201_718"/>
<feBlend mode="normal" in="SourceGraphic" in2="effect1_dropShadow_201_718" result="shape"/>
</filter>
<clipPath id="clip0_201_718">
<rect width="418" height="252" fill="white" transform="translate(0.5 0.5)"/>
</clipPath>
</defs>
</svg>
